# xmcd CD database file
#
# Track frame offsets:
#	150
#	17707
#	33642
#	59676
#	78490
#	93412
#	112662
#	137900
#	162549
#	186029
#	221585
#	233192
#
# Disc length: 3480 seconds
#
# Revision: 0
# Processed by: cddbd v1.5.2PL0 Copyright (c) Steve Scherf et al.
# Submitted via: CDex 1.51
#
DISCID=a40d960c
DTITLE=Stillwood - Untangled
DYEAR=2005
DGENRE=Country
TTITLE0=Texas El Camino
TTITLE1=Crystal Ball
TTITLE2=River Junction
TTITLE3=Scarecrow
TTITLE4=Fearless Dreamer
TTITLE5=Window
TTITLE6=Runaround
TTITLE7=Standing in Her Light
TTITLE8=Deep
TTITLE9=Movin' On
TTITLE10=Better Days
TTITLE11=Love
EXTD=YEAR: 2005
EXTT0=
EXTT1=
EXTT2=
EXTT3=
EXTT4=
EXTT5=
EXTT6=
EXTT7=
EXTT8=
EXTT9=
EXTT10=
EXTT11=
PLAYORDER=
